# Created by FreeCAD <http://www.freecad.org>
v 9.200000 11.460000 2.350000
v 8.500000 11.460000 2.350000
v 8.790000 11.750000 2.350000
v 8.910000 11.750000 2.350000
v 9.200000 11.250000 2.350000
v 8.500000 11.250000 2.350000
v 8.500000 11.250000 12.350000
v 8.500000 11.460000 12.350000
v 8.790000 11.750000 12.350000
v 7.200000 11.250000 14.700000
v 9.200000 11.250000 14.700000
v 9.200000 11.250000 12.350000
v 9.200000 11.250000 0.000000
v 7.200000 11.250000 0.000000
v 8.910000 11.750000 12.350000
v 9.200000 11.460000 12.350000
v 9.400000 11.050000 0.000000
v 9.400000 11.050000 14.700000
v 2.500000 -10.000000 14.700000
v 1.554958 -12.449856 14.700000
v 2.000000 -12.500000 14.700000
v 1.132233 -12.301938 14.700000
v 0.753020 -12.063663 14.700000
v 0.436337 -11.746980 14.700000
v 0.198062 -11.367767 14.700000
v 0.050144 -10.945042 14.700000
v -0.000000 -10.500000 14.700000
v 7.200000 -11.250000 14.700000
v 7.200000 -12.500000 14.700000
v 7.200000 -10.000000 14.700000
v 9.200000 -11.250000 14.700000
v 9.400000 -10.000000 14.700000
v 9.400000 -11.050000 14.700000
v 2.500000 10.000000 14.700000
v 0.050144 10.945042 14.700000
v -0.000000 10.500000 14.700000
v 0.198062 11.367767 14.700000
v 0.436337 11.746980 14.700000
v 0.753020 12.063663 14.700000
v 1.132233 12.301938 14.700000
v 1.554958 12.449856 14.700000
v 2.000000 12.500000 14.700000
v 7.200000 10.000000 14.700000
v 7.200000 12.500000 14.700000
v 9.400000 10.000000 14.700000
v 7.200000 12.500000 0.000000
v 1.554958 -12.449856 0.000000
v 2.500000 -10.000000 0.000000
v 2.000000 -12.500000 0.000000
v 1.132233 -12.301938 0.000000
v 0.753020 -12.063663 0.000000
v 0.436337 -11.746980 0.000000
v 0.198062 -11.367767 0.000000
v 0.050144 -10.945042 0.000000
v -0.000000 -10.500000 0.000000
v 7.200000 -11.250000 0.000000
v 7.200000 -12.500000 0.000000
v 7.200000 -10.000000 0.000000
v 9.200000 -11.250000 0.000000
v 9.400000 -10.000000 0.000000
v 9.400000 -11.050000 0.000000
v 0.050144 10.945042 0.000000
v 2.500000 10.000000 0.000000
v -0.000000 10.500000 0.000000
v 0.198062 11.367767 0.000000
v 0.436337 11.746980 0.000000
v 0.753020 12.063663 0.000000
v 1.132233 12.301938 0.000000
v 1.554958 12.449856 0.000000
v 2.000000 12.500000 0.000000
v 7.200000 10.000000 0.000000
v 9.400000 10.000000 0.000000
v 8.500000 -11.250000 12.350000
v 9.200000 -11.250000 12.350000
v 9.200000 -11.250000 2.350000
v 8.500000 -11.250000 2.350000
v 9.200000 -11.460000 12.350000
v 8.500000 -11.460000 12.350000
v 8.790000 -11.750000 12.350000
v 8.910000 -11.750000 12.350000
v 8.500000 -11.460000 2.350000
v 9.200000 -11.460000 2.350000
v 8.910000 -11.750000 2.350000
v 8.790000 -11.750000 2.350000
vn 0.000000 0.000000 -1.000000
vn 0.000000 0.000000 -1.000000
vn 0.000000 0.000000 -1.000000
vn 0.000000 0.000000 -1.000000
vn -1.000000 0.000000 0.000000
vn -1.000000 0.000000 0.000000
vn -0.707107 0.707107 0.000000
vn -0.707107 0.707107 0.000000
vn 0.000000 1.000000 -0.000000
vn 0.000000 1.000000 -0.000000
vn 0.000000 1.000000 -0.000000
vn 0.000000 1.000000 0.000000
vn 0.000000 1.000000 0.000000
vn 0.000000 1.000000 0.000000
vn 0.000000 1.000000 0.000000
vn 0.000000 1.000000 0.000000
vn 1.000000 0.000000 0.000000
vn 1.000000 -0.000000 0.000000
vn 0.707107 0.707107 -0.000000
vn 0.707107 0.707107 -0.000000
vn -0.000000 0.000000 1.000000
vn -0.000000 0.000000 1.000000
vn 0.000000 0.000000 1.000000
vn 0.000000 0.000000 1.000000
vn 0.707107 0.707107 0.000000
vn 0.707107 0.707107 0.000000
vn 0.707107 0.707107 0.000000
vn 0.707107 0.707107 0.000000
vn 0.000000 0.000000 1.000000
vn 0.000000 0.000000 1.000000
vn 0.000000 0.000000 1.000000
vn 0.000000 0.000000 1.000000
vn 0.000000 0.000000 1.000000
vn 0.000000 0.000000 1.000000
vn 0.000000 0.000000 1.000000
vn 0.000000 0.000000 1.000000
vn 0.000000 0.000000 1.000000
vn 0.000000 0.000000 1.000000
vn 0.000000 0.000000 1.000000
vn 0.000000 0.000000 1.000000
vn 0.000000 0.000000 1.000000
vn 0.000000 0.000000 1.000000
vn 0.000000 0.000000 1.000000
vn 0.000000 0.000000 1.000000
vn 0.000000 0.000000 1.000000
vn 0.000000 0.000000 1.000000
vn 0.000000 0.000000 1.000000
vn 0.000000 0.000000 1.000000
vn 0.000000 0.000000 1.000000
vn 0.000000 0.000000 1.000000
vn 0.000000 0.000000 1.000000
vn 0.000000 0.000000 1.000000
vn 0.000000 0.000000 1.000000
vn 0.000000 0.000000 1.000000
vn 0.000000 0.000000 1.000000
vn 0.000000 0.000000 1.000000
vn 1.000000 0.000000 0.000000
vn 1.000000 0.000000 0.000000
vn 0.000000 0.000000 -1.000000
vn 0.000000 0.000000 -1.000000
vn 0.000000 0.000000 -1.000000
vn 0.000000 0.000000 -1.000000
vn 0.000000 0.000000 -1.000000
vn 0.000000 0.000000 -1.000000
vn 0.000000 0.000000 -1.000000
vn 0.000000 0.000000 -1.000000
vn 0.000000 -0.000000 -1.000000
vn 0.000000 0.000000 -1.000000
vn 0.000000 0.000000 -1.000000
vn 0.000000 0.000000 -1.000000
vn 0.000000 0.000000 -1.000000
vn 0.000000 -0.000000 -1.000000
vn 0.000000 -0.000000 -1.000000
vn 0.000000 -0.000000 -1.000000
vn 0.000000 0.000000 -1.000000
vn 0.000000 0.000000 -1.000000
vn 0.000000 0.000000 -1.000000
vn 0.000000 0.000000 -1.000000
vn 0.000000 0.000000 -1.000000
vn 0.000000 0.000000 -1.000000
vn 0.000000 0.000000 -1.000000
vn 0.000000 0.000000 -1.000000
vn 0.000000 0.000000 -1.000000
vn 0.000000 0.000000 -1.000000
vn 0.000000 0.000000 -1.000000
vn 0.000000 0.000000 -1.000000
vn 1.000000 0.000000 0.000000
vn 1.000000 0.000000 0.000000
vn 0.000000 -1.000000 0.000000
vn 0.000000 -1.000000 0.000000
vn 0.000000 -1.000000 0.000000
vn 0.000000 -1.000000 0.000000
vn 0.000000 -1.000000 0.000000
vn 0.000000 -1.000000 0.000000
vn 0.707107 -0.707107 0.000000
vn 0.707107 -0.707107 0.000000
vn 0.707107 -0.707107 0.000000
vn 0.707107 -0.707107 0.000000
vn 1.000000 0.000000 0.000000
vn 1.000000 0.000000 0.000000
vn 1.000000 0.000000 0.000000
vn 1.000000 0.000000 0.000000
vn 0.000000 -1.000000 0.000000
vn 0.000000 -1.000000 0.000000
vn 0.000000 1.000000 0.000000
vn 0.000000 1.000000 -0.000000
vn -0.111965 -0.993712 0.000000
vn -0.111965 -0.993712 -0.000000
vn -0.330278 -0.943884 0.000000
vn -0.330278 -0.943884 -0.000000
vn -0.532033 -0.846723 0.000000
vn -0.707106 -0.707107 0.000000
vn -0.532033 -0.846723 -0.000000
vn -0.707106 -0.707107 0.000000
vn -0.846724 -0.532032 0.000000
vn -0.846724 -0.532032 -0.000000
vn -0.943883 -0.330279 0.000000
vn -0.943883 -0.330279 -0.000000
vn -0.993712 -0.111965 0.000000
vn -0.993712 -0.111965 -0.000000
vn 0.000000 1.000000 0.000000
vn 0.000000 1.000000 -0.000000
vn -1.000000 0.000000 0.000000
vn -1.000000 0.000000 0.000000
vn 1.000000 0.000000 0.000000
vn 1.000000 0.000000 0.000000
vn -0.993712 0.111965 0.000000
vn -0.993712 0.111965 0.000000
vn -0.943883 0.330279 0.000000
vn -0.943883 0.330279 0.000000
vn -0.846724 0.532032 0.000000
vn -0.707106 0.707107 0.000000
vn -0.846724 0.532032 0.000000
vn -0.707106 0.707107 0.000000
vn -0.532033 0.846723 0.000000
vn -0.532033 0.846723 0.000000
vn -0.330278 0.943884 0.000000
vn -0.330278 0.943884 0.000000
vn -0.111965 0.993712 0.000000
vn -0.111965 0.993712 0.000000
vn 0.000000 -1.000000 0.000000
vn 0.000000 -1.000000 0.000000
vn 0.000000 1.000000 0.000000
vn 0.000000 1.000000 -0.000000
vn 0.000000 -1.000000 0.000000
vn 0.000000 -1.000000 0.000000
vn 0.000000 0.000000 1.000000
vn 0.000000 0.000000 1.000000
vn 0.000000 0.000000 1.000000
vn 0.000000 0.000000 1.000000
vn -1.000000 0.000000 -0.000000
vn -1.000000 -0.000000 0.000000
vn 0.000000 0.000000 -1.000000
vn 0.000000 0.000000 -1.000000
vn 0.000000 0.000000 -1.000000
vn 0.000000 0.000000 -1.000000
vn 1.000000 0.000000 -0.000000
vn 1.000000 0.000000 0.000000
vn -0.707107 -0.707107 0.000000
vn -0.707107 -0.707107 0.000000
vn 0.000000 -1.000000 0.000000
vn 0.000000 -1.000000 0.000000
vn 0.707107 -0.707107 0.000000
vn 0.707107 -0.707107 0.000000
f 1//1 2//1 3//1
f 1//2 3//2 4//2
f 5//3 6//3 2//3
f 5//4 2//4 1//4
f 6//5 7//5 8//5
f 6//6 8//6 2//6
f 9//7 2//7 8//7
f 9//8 3//8 2//8
f 7//9 10//9 11//9
f 12//10 7//10 11//10
f 13//11 6//11 5//11
f 13//12 14//12 6//12
f 14//13 10//13 7//13
f 14//14 7//14 6//14
f 9//15 4//15 3//15
f 15//16 4//16 9//16
f 12//17 5//17 1//17
f 12//18 1//18 16//18
f 4//19 15//19 1//19
f 1//20 15//20 16//20
f 9//21 16//21 15//21
f 8//22 12//22 16//22
f 8//23 16//23 9//23
f 7//24 12//24 8//24
f 5//25 17//25 13//25
f 18//26 12//26 11//26
f 18//27 17//27 5//27
f 18//28 5//28 12//28
f 19//29 20//29 21//29
f 19//30 22//30 20//30
f 19//31 23//31 22//31
f 19//32 24//32 23//32
f 19//33 25//33 24//33
f 19//34 26//34 25//34
f 19//35 27//35 26//35
f 28//36 21//36 29//36
f 28//37 19//37 21//37
f 30//38 19//38 28//38
f 31//39 30//39 28//39
f 32//40 31//40 33//40
f 32//41 30//41 31//41
f 34//42 35//42 36//42
f 34//43 37//43 35//43
f 34//44 38//44 37//44
f 34//45 36//45 27//45
f 34//46 27//46 19//46
f 39//47 38//47 34//47
f 40//48 39//48 34//48
f 41//49 40//49 34//49
f 42//50 41//50 34//50
f 10//51 34//51 43//51
f 10//52 42//52 34//52
f 44//53 42//53 10//53
f 11//54 43//54 45//54
f 11//55 10//55 43//55
f 18//56 11//56 45//56
f 14//57 46//57 44//57
f 14//58 44//58 10//58
f 47//59 48//59 49//59
f 50//60 48//60 47//60
f 51//61 48//61 50//61
f 52//62 48//62 51//62
f 53//63 48//63 52//63
f 54//64 48//64 53//64
f 55//65 48//65 54//65
f 49//66 56//66 57//66
f 48//67 56//67 49//67
f 48//68 58//68 56//68
f 58//69 59//69 56//69
f 59//70 60//70 61//70
f 58//71 60//71 59//71
f 62//72 63//72 64//72
f 65//73 63//73 62//73
f 66//74 63//74 65//74
f 64//75 63//75 55//75
f 55//76 63//76 48//76
f 66//77 67//77 63//77
f 67//78 68//78 63//78
f 68//79 69//79 63//79
f 69//80 70//80 63//80
f 63//81 14//81 71//81
f 70//82 14//82 63//82
f 70//83 46//83 14//83
f 71//84 13//84 72//84
f 14//85 13//85 71//85
f 13//86 17//86 72//86
f 72//87 17//87 18//87
f 72//88 18//88 45//88
f 73//89 74//89 31//89
f 73//90 31//90 28//90
f 59//91 75//91 76//91
f 56//92 59//92 76//92
f 28//93 56//93 76//93
f 28//94 76//94 73//94
f 61//95 75//95 59//95
f 74//96 33//96 31//96
f 61//97 33//97 75//97
f 75//98 33//98 74//98
f 57//99 56//99 28//99
f 57//100 28//100 29//100
f 61//101 60//101 32//101
f 61//102 32//102 33//102
f 49//103 57//103 29//103
f 49//104 29//104 21//104
f 60//105 58//105 30//105
f 60//106 30//106 32//106
f 49//107 20//107 47//107
f 21//108 20//108 49//108
f 47//109 22//109 50//109
f 20//110 22//110 47//110
f 50//111 23//111 51//111
f 51//112 23//112 52//112
f 22//113 23//113 50//113
f 23//114 24//114 52//114
f 52//115 25//115 53//115
f 24//116 25//116 52//116
f 53//117 26//117 54//117
f 25//118 26//118 53//118
f 54//119 27//119 55//119
f 26//120 27//120 54//120
f 58//121 48//121 19//121
f 58//122 19//122 30//122
f 64//123 55//123 27//123
f 64//124 27//124 36//124
f 48//125 63//125 34//125
f 48//126 34//126 19//126
f 64//127 35//127 62//127
f 36//128 35//128 64//128
f 62//129 37//129 65//129
f 35//130 37//130 62//130
f 65//131 38//131 66//131
f 66//132 38//132 67//132
f 37//133 38//133 65//133
f 38//134 39//134 67//134
f 67//135 40//135 68//135
f 39//136 40//136 67//136
f 68//137 41//137 69//137
f 40//138 41//138 68//138
f 69//139 42//139 70//139
f 41//140 42//140 69//140
f 63//141 71//141 43//141
f 63//142 43//142 34//142
f 70//143 42//143 44//143
f 46//144 70//144 44//144
f 71//145 72//145 43//145
f 43//146 72//146 45//146
f 77//147 73//147 78//147
f 77//148 78//148 79//148
f 77//149 79//149 80//149
f 74//150 73//150 77//150
f 73//151 76//151 81//151
f 73//152 81//152 78//152
f 81//153 75//153 82//153
f 81//154 82//154 83//154
f 81//155 83//155 84//155
f 76//156 75//156 81//156
f 75//157 74//157 77//157
f 75//158 77//158 82//158
f 84//159 79//159 81//159
f 81//160 79//160 78//160
f 83//161 80//161 84//161
f 84//162 80//162 79//162
f 80//163 83//163 77//163
f 77//164 83//164 82//164
